<svg xmlns="http://www.w3.org/2000/svg" fill="none" viewBox="0 0 100 100"><path fill="#6e81b6" fill-rule="evenodd" d="M50 75.677c27.614 0 50-11.345 50-25.338S77.614 25 50 25 0 36.345 0 50.339s22.386 25.338 50 25.338" clip-rule="evenodd"/><path fill="#fff" fill-rule="evenodd" d="m60.133 58.528 2.48-12.764c.56-2.881.095-5.03-1.382-6.388-1.431-1.314-3.86-1.953-7.427-1.953H49.51l1.229-6.324a.812.812 0 0 0-.798-.969h-5.928a.81.81 0 0 0-.798.659l-2.634 13.55c-.24-1.524-.83-2.835-1.774-3.916-1.74-1.99-4.49-3-8.176-3H19.14a.814.814 0 0 0-.798.658l-5.33 27.43a.81.81 0 0 0 .798.968h5.974c.39 0 .724-.276.798-.66l1.29-6.634h4.447c2.334 0 4.295-.252 5.826-.75 1.566-.51 3.006-1.373 4.276-2.562a13.1 13.1 0 0 0 2.526-3.136l-1.065 5.48a.81.81 0 0 0 .798.968h5.929c.39 0 .723-.276.798-.658l2.926-15.056H52.4c1.734 0 2.242.345 2.38.493.125.135.385.612.093 2.116l-2.358 12.136a.813.813 0 0 0 .798.968h6.023a.81.81 0 0 0 .797-.656M32.65 47.981c-.373 1.914-1.074 3.279-2.086 4.057-1.028.793-2.672 1.194-4.886 1.194h-2.649l1.915-9.854h3.424c2.515 0 3.529.538 3.936.988.564.625.683 1.876.346 3.615m52.455-7.558c-1.738-1.99-4.488-3-8.175-3H65.44a.81.81 0 0 0-.798.658l-5.33 27.43a.814.814 0 0 0 .797.968h5.975c.39 0 .724-.276.798-.66l1.29-6.634h4.448c2.335 0 4.294-.252 5.826-.75 1.565-.51 3.006-1.373 4.275-2.562a13.1 13.1 0 0 0 2.591-3.247 13.2 13.2 0 0 0 1.41-3.915c.679-3.495.135-6.283-1.617-8.288m-5.817 7.558c-.373 1.914-1.074 3.279-2.085 4.057-1.028.793-2.672 1.194-4.886 1.194h-2.65l1.915-9.854h3.424c2.516 0 3.529.538 3.937.988.562.625.683 1.876.345 3.615" clip-rule="evenodd"/><path fill="#000" fill-rule="evenodd" d="M28.197 42.565q3.405 0 4.54 1.257 1.133 1.258.54 4.315-.621 3.184-2.388 4.546-1.77 1.362-5.383 1.362h-3.635l2.231-11.48zm-14.559 23.1h5.975l1.418-7.291h5.118q3.387 0 5.575-.713 2.187-.712 3.977-2.386a12.2 12.2 0 0 0 2.431-3.045q.93-1.665 1.32-3.674.949-4.877-1.429-7.598t-7.563-2.721H18.97zm30.203-34.721h5.928l-1.417 7.293h5.282q4.984 0 6.876 1.738t1.135 5.634l-2.48 12.765h-6.023L55.5 46.237q.403-2.072-.296-2.825t-2.974-.753h-4.738l-3.054 15.715H38.51zm30.994 11.621q3.405 0 4.54 1.257 1.132 1.258.54 4.315-.619 3.184-2.388 4.546t-5.381 1.362h-3.635l2.23-11.48zm-14.56 23.1h5.976l1.417-7.291h5.118q3.389 0 5.575-.713 2.189-.712 3.978-2.386a12.2 12.2 0 0 0 2.43-3.045 12.3 12.3 0 0 0 1.322-3.674q.948-4.877-1.43-7.598t-7.563-2.721h-11.49z" clip-rule="evenodd"/></svg>